<svg width="153" height="26" viewBox="0 0 153 26" fill="none" xmlns="http://www.w3.org/2000/svg">
<path d="M1.264 6.672H5.2C5.744 6.672 6.26667 6.72533 6.768 6.832C7.28 6.928 7.73333 7.09867 8.128 7.344C8.52267 7.58933 8.83733 7.92 9.072 8.336C9.30667 8.752 9.424 9.28 9.424 9.92C9.424 10.7413 9.19467 11.4293 8.736 11.984C8.288 12.5387 7.64267 12.8747 6.8 12.992L9.808 18H7.376L4.752 13.2H3.28V18H1.264V6.672ZM4.848 11.472C5.136 11.472 5.424 11.4613 5.712 11.44C6 11.408 6.26133 11.344 6.496 11.248C6.74133 11.1413 6.93867 10.9867 7.088 10.784C7.23733 10.5707 7.312 10.2773 7.312 9.904C7.312 9.57333 7.24267 9.30667 7.104 9.104C6.96533 8.90133 6.784 8.752 6.56 8.656C6.336 8.54933 6.08533 8.48 5.808 8.448C5.54133 8.416 5.28 8.4 5.024 8.4H3.28V11.472H4.848ZM12.7821 14.832C12.8461 15.408 13.0701 15.856 13.4541 16.176C13.8381 16.496 14.3021 16.656 14.8461 16.656C15.3261 16.656 15.7261 16.56 16.0461 16.368C16.3768 16.1653 16.6648 15.9147 16.9101 15.616L18.2861 16.656C17.8381 17.2107 17.3368 17.6053 16.7821 17.84C16.2275 18.0747 15.6461 18.192 15.0381 18.192C14.4621 18.192 13.9181 18.096 13.4061 17.904C12.8941 17.712 12.4515 17.44 12.0781 17.088C11.7048 16.736 11.4061 16.3147 11.1821 15.824C10.9688 15.3227 10.8621 14.768 10.8621 14.16C10.8621 13.552 10.9688 13.0027 11.1821 12.512C11.4061 12.0107 11.7048 11.584 12.0781 11.232C12.4515 10.88 12.8941 10.608 13.4061 10.416C13.9181 10.224 14.4621 10.128 15.0381 10.128C15.5715 10.128 16.0568 10.224 16.4941 10.416C16.9421 10.5973 17.3208 10.864 17.6301 11.216C17.9501 11.568 18.1955 12.0053 18.3661 12.528C18.5475 13.04 18.6381 13.632 18.6381 14.304V14.832H12.7821ZM16.7181 13.392C16.7075 12.8267 16.5315 12.384 16.1901 12.064C15.8488 11.7333 15.3741 11.568 14.7661 11.568C14.1901 11.568 13.7315 11.7333 13.3901 12.064C13.0595 12.3947 12.8568 12.8373 12.7821 13.392H16.7181ZM28.4176 21.648H26.4976V17.024H26.4496C26.3536 17.152 26.231 17.2853 26.0816 17.424C25.9323 17.552 25.751 17.6747 25.5376 17.792C25.3243 17.9093 25.079 18.0053 24.8016 18.08C24.5243 18.1547 24.2043 18.192 23.8416 18.192C23.2976 18.192 22.7963 18.0907 22.3376 17.888C21.879 17.6747 21.4843 17.3867 21.1536 17.024C20.8336 16.6613 20.583 16.2347 20.4016 15.744C20.2203 15.2533 20.1296 14.7253 20.1296 14.16C20.1296 13.5947 20.215 13.0667 20.3856 12.576C20.5563 12.0853 20.807 11.6587 21.1376 11.296C21.4683 10.9333 21.863 10.6507 22.3216 10.448C22.791 10.2347 23.3243 10.128 23.9216 10.128C24.4656 10.128 24.9723 10.2347 25.4416 10.448C25.911 10.6613 26.2843 11.0027 26.5616 11.472H26.5936V10.32H28.4176V21.648ZM22.0496 14.16C22.0496 14.4587 22.0976 14.7467 22.1936 15.024C22.3003 15.3013 22.4496 15.5467 22.6416 15.76C22.8443 15.9733 23.0843 16.144 23.3616 16.272C23.639 16.4 23.9536 16.464 24.3056 16.464C24.6576 16.464 24.9723 16.4 25.2496 16.272C25.527 16.144 25.7616 15.9733 25.9536 15.76C26.1563 15.5467 26.3056 15.3013 26.4016 15.024C26.5083 14.7467 26.5616 14.4587 26.5616 14.16C26.5616 13.8613 26.5083 13.5733 26.4016 13.296C26.3056 13.0187 26.1563 12.7733 25.9536 12.56C25.7616 12.3467 25.527 12.176 25.2496 12.048C24.9723 11.92 24.6576 11.856 24.3056 11.856C23.9536 11.856 23.639 11.92 23.3616 12.048C23.0843 12.176 22.8443 12.3467 22.6416 12.56C22.4496 12.7733 22.3003 13.0187 22.1936 13.296C22.0976 13.5733 22.0496 13.8613 22.0496 14.16ZM37.6798 18H35.8558V16.768H35.8238C35.6424 17.152 35.3651 17.488 34.9918 17.776C34.6184 18.0533 34.1117 18.192 33.4718 18.192C32.9597 18.192 32.5224 18.112 32.1597 17.952C31.8077 17.7813 31.5197 17.5573 31.2957 17.28C31.0717 16.992 30.9117 16.6667 30.8157 16.304C30.7197 15.9413 30.6717 15.5627 30.6717 15.168V10.32H32.5917V14.208C32.5917 14.4213 32.6024 14.6613 32.6237 14.928C32.6451 15.184 32.6984 15.4293 32.7837 15.664C32.8797 15.888 33.0184 16.08 33.1997 16.24C33.3918 16.3893 33.6584 16.464 33.9998 16.464C34.3198 16.464 34.5864 16.4107 34.7997 16.304C35.0237 16.1973 35.2051 16.0533 35.3438 15.872C35.4931 15.6907 35.5998 15.4827 35.6638 15.248C35.7277 15.0133 35.7597 14.768 35.7597 14.512V10.32H37.6798V18ZM41.4752 14.832C41.5392 15.408 41.7632 15.856 42.1472 16.176C42.5312 16.496 42.9952 16.656 43.5392 16.656C44.0193 16.656 44.4193 16.56 44.7393 16.368C45.0699 16.1653 45.3579 15.9147 45.6033 15.616L46.9792 16.656C46.5312 17.2107 46.0299 17.6053 45.4753 17.84C44.9206 18.0747 44.3392 18.192 43.7312 18.192C43.1552 18.192 42.6112 18.096 42.0992 17.904C41.5872 17.712 41.1446 17.44 40.7712 17.088C40.3979 16.736 40.0992 16.3147 39.8752 15.824C39.6619 15.3227 39.5552 14.768 39.5552 14.16C39.5552 13.552 39.6619 13.0027 39.8752 12.512C40.0992 12.0107 40.3979 11.584 40.7712 11.232C41.1446 10.88 41.5872 10.608 42.0992 10.416C42.6112 10.224 43.1552 10.128 43.7312 10.128C44.2646 10.128 44.7499 10.224 45.1873 10.416C45.6353 10.5973 46.0139 10.864 46.3232 11.216C46.6432 11.568 46.8886 12.0053 47.0592 12.528C47.2406 13.04 47.3313 13.632 47.3313 14.304V14.832H41.4752ZM45.4113 13.392C45.4006 12.8267 45.2246 12.384 44.8832 12.064C44.5419 11.7333 44.0673 11.568 43.4592 11.568C42.8832 11.568 42.4246 11.7333 42.0832 12.064C41.7526 12.3947 41.5499 12.8373 41.4752 13.392H45.4113ZM53.3028 12.448C52.9294 11.9253 52.4281 11.664 51.7988 11.664C51.5428 11.664 51.2921 11.728 51.0468 11.856C50.8014 11.984 50.6788 12.192 50.6788 12.48C50.6788 12.7147 50.7801 12.8853 50.9828 12.992C51.1854 13.0987 51.4414 13.1893 51.7508 13.264C52.0601 13.3387 52.3908 13.4187 52.7428 13.504C53.1054 13.5787 53.4414 13.7013 53.7508 13.872C54.0601 14.032 54.3161 14.256 54.5188 14.544C54.7214 14.832 54.8228 15.2267 54.8228 15.728C54.8228 16.1867 54.7214 16.576 54.5188 16.896C54.3268 17.2053 54.0708 17.456 53.7508 17.648C53.4414 17.84 53.0894 17.9787 52.6948 18.064C52.3001 18.1493 51.9054 18.192 51.5108 18.192C50.9134 18.192 50.3641 18.1067 49.8628 17.936C49.3614 17.7653 48.9134 17.456 48.5188 17.008L49.7988 15.808C50.0441 16.0853 50.3054 16.3147 50.5828 16.496C50.8708 16.6667 51.2174 16.752 51.6228 16.752C51.7614 16.752 51.9054 16.736 52.0548 16.704C52.2041 16.672 52.3428 16.6187 52.4708 16.544C52.5988 16.4693 52.7001 16.3787 52.7748 16.272C52.8601 16.1547 52.9028 16.0213 52.9028 15.872C52.9028 15.6053 52.8014 15.408 52.5988 15.28C52.3961 15.152 52.1401 15.0507 51.8308 14.976C51.5214 14.8907 51.1854 14.816 50.8228 14.752C50.4708 14.6773 50.1401 14.5653 49.8308 14.416C49.5214 14.256 49.2654 14.0373 49.0628 13.76C48.8601 13.4827 48.7588 13.0987 48.7588 12.608C48.7588 12.1813 48.8441 11.8133 49.0148 11.504C49.1961 11.184 49.4308 10.9227 49.7188 10.72C50.0068 10.5173 50.3374 10.368 50.7108 10.272C51.0841 10.176 51.4628 10.128 51.8468 10.128C52.3588 10.128 52.8654 10.2187 53.3668 10.4C53.8681 10.5707 54.2734 10.8693 54.5828 11.296L53.3028 12.448ZM55.5001 11.952V10.32H57.0841V8.096H59.0041V10.32H61.1161V11.952H59.0041V15.312C59.0041 15.696 59.0735 16 59.2121 16.224C59.3615 16.448 59.6495 16.56 60.0761 16.56C60.2468 16.56 60.4335 16.544 60.6361 16.512C60.8388 16.4693 60.9988 16.4053 61.1161 16.32V17.936C60.9135 18.032 60.6628 18.096 60.3641 18.128C60.0761 18.1707 59.8201 18.192 59.5961 18.192C59.0841 18.192 58.6628 18.1333 58.3321 18.016C58.0121 17.9093 57.7561 17.744 57.5641 17.52C57.3828 17.2853 57.2548 16.9973 57.1801 16.656C57.1161 16.3147 57.0841 15.92 57.0841 15.472V11.952H55.5001ZM67.6852 6.672H72.1492C72.8959 6.672 73.6159 6.78933 74.3092 7.024C75.0026 7.248 75.6159 7.59467 76.1493 8.064C76.6826 8.53333 77.1093 9.12533 77.4292 9.84C77.7493 10.544 77.9093 11.376 77.9093 12.336C77.9093 13.3067 77.7226 14.1493 77.3492 14.864C76.9866 15.568 76.5119 16.1547 75.9253 16.624C75.3492 17.0827 74.7039 17.4293 73.9892 17.664C73.2852 17.888 72.5919 18 71.9092 18H67.6852V6.672ZM71.2052 16.176C71.8346 16.176 72.4266 16.1067 72.9812 15.968C73.5466 15.8187 74.0372 15.5947 74.4532 15.296C74.8692 14.9867 75.1946 14.592 75.4292 14.112C75.6746 13.6213 75.7972 13.0293 75.7972 12.336C75.7972 11.6533 75.6906 11.0667 75.4773 10.576C75.2639 10.0853 74.9652 9.69067 74.5813 9.392C74.2079 9.08267 73.7599 8.85867 73.2372 8.72C72.7252 8.57067 72.1599 8.496 71.5412 8.496H69.7012V16.176H71.2052ZM81.2659 14.832C81.3299 15.408 81.5539 15.856 81.9379 16.176C82.3219 16.496 82.7859 16.656 83.3299 16.656C83.8099 16.656 84.2099 16.56 84.5299 16.368C84.8605 16.1653 85.1485 15.9147 85.3939 15.616L86.7699 16.656C86.3219 17.2107 85.8205 17.6053 85.2659 17.84C84.7112 18.0747 84.1299 18.192 83.5219 18.192C82.9459 18.192 82.4019 18.096 81.8899 17.904C81.3779 17.712 80.9352 17.44 80.5619 17.088C80.1885 16.736 79.8899 16.3147 79.6659 15.824C79.4525 15.3227 79.3459 14.768 79.3459 14.16C79.3459 13.552 79.4525 13.0027 79.6659 12.512C79.8899 12.0107 80.1885 11.584 80.5619 11.232C80.9352 10.88 81.3779 10.608 81.8899 10.416C82.4019 10.224 82.9459 10.128 83.5219 10.128C84.0552 10.128 84.5405 10.224 84.9779 10.416C85.4259 10.5973 85.8045 10.864 86.1139 11.216C86.4339 11.568 86.6792 12.0053 86.8499 12.528C87.0312 13.04 87.1219 13.632 87.1219 14.304V14.832H81.2659ZM85.2019 13.392C85.1912 12.8267 85.0152 12.384 84.6739 12.064C84.3325 11.7333 83.8579 11.568 83.2499 11.568C82.6739 11.568 82.2152 11.7333 81.8739 12.064C81.5432 12.3947 81.3405 12.8373 81.2659 13.392H85.2019ZM88.9174 10.32H90.7414V11.52H90.7734C90.944 11.1573 91.216 10.8373 91.5894 10.56C91.9734 10.272 92.4854 10.128 93.1254 10.128C94.3307 10.128 95.1307 10.6027 95.5254 11.552C95.8027 11.0613 96.1494 10.704 96.5654 10.48C96.9814 10.2453 97.4774 10.128 98.0534 10.128C98.5654 10.128 98.9974 10.2133 99.3494 10.384C99.7014 10.5547 99.984 10.7893 100.197 11.088C100.421 11.3867 100.581 11.7387 100.677 12.144C100.773 12.5387 100.821 12.9653 100.821 13.424V18H98.9014V13.648C98.9014 13.4133 98.88 13.1893 98.8374 12.976C98.7947 12.752 98.72 12.56 98.6134 12.4C98.5067 12.2293 98.3627 12.096 98.1814 12C98 11.904 97.7654 11.856 97.4774 11.856C97.1787 11.856 96.9227 11.9147 96.7094 12.032C96.5067 12.1387 96.336 12.288 96.1974 12.48C96.0694 12.6613 95.9734 12.8747 95.9094 13.12C95.856 13.3547 95.8294 13.5947 95.8294 13.84V18H93.9094V13.424C93.9094 12.944 93.808 12.5653 93.6054 12.288C93.4027 12 93.0667 11.856 92.5974 11.856C92.2774 11.856 92.0054 11.9093 91.7814 12.016C91.568 12.1227 91.3867 12.2667 91.2374 12.448C91.0987 12.6293 90.9974 12.8373 90.9334 13.072C90.8694 13.3067 90.8374 13.552 90.8374 13.808V18H88.9174V10.32ZM102.615 14.16C102.615 13.552 102.722 13.0027 102.935 12.512C103.159 12.0107 103.458 11.584 103.831 11.232C104.205 10.88 104.647 10.608 105.159 10.416C105.671 10.224 106.215 10.128 106.791 10.128C107.367 10.128 107.911 10.224 108.423 10.416C108.935 10.608 109.378 10.88 109.751 11.232C110.125 11.584 110.418 12.0107 110.631 12.512C110.855 13.0027 110.967 13.552 110.967 14.16C110.967 14.768 110.855 15.3227 110.631 15.824C110.418 16.3147 110.125 16.736 109.751 17.088C109.378 17.44 108.935 17.712 108.423 17.904C107.911 18.096 107.367 18.192 106.791 18.192C106.215 18.192 105.671 18.096 105.159 17.904C104.647 17.712 104.205 17.44 103.831 17.088C103.458 16.736 103.159 16.3147 102.935 15.824C102.722 15.3227 102.615 14.768 102.615 14.16ZM104.535 14.16C104.535 14.4587 104.583 14.7467 104.679 15.024C104.786 15.3013 104.935 15.5467 105.127 15.76C105.33 15.9733 105.57 16.144 105.847 16.272C106.125 16.4 106.439 16.464 106.791 16.464C107.143 16.464 107.458 16.4 107.735 16.272C108.013 16.144 108.247 15.9733 108.439 15.76C108.642 15.5467 108.791 15.3013 108.887 15.024C108.994 14.7467 109.047 14.4587 109.047 14.16C109.047 13.8613 108.994 13.5733 108.887 13.296C108.791 13.0187 108.642 12.7733 108.439 12.56C108.247 12.3467 108.013 12.176 107.735 12.048C107.458 11.92 107.143 11.856 106.791 11.856C106.439 11.856 106.125 11.92 105.847 12.048C105.57 12.176 105.33 12.3467 105.127 12.56C104.935 12.7733 104.786 13.0187 104.679 13.296C104.583 13.5733 104.535 13.8613 104.535 14.16Z" fill="#212353"/>
<path d="M146 20L152 13L146 6" stroke="#9C69E2" stroke-width="2" stroke-linecap="round" stroke-linejoin="round"/>
<path d="M152 13H132" stroke="#9C69E2" stroke-width="2" stroke-linecap="round" stroke-linejoin="round"/>
</svg>
