<svg width="129" height="26" viewBox="0 0 129 26" fill="none" xmlns="http://www.w3.org/2000/svg">
<path d="M1.54916 6.67285H3.56516V16.1769H8.38116V18.0009H1.54916V6.67285ZM11.286 14.8329C11.35 15.4089 11.574 15.8569 11.958 16.1769C12.342 16.4969 12.806 16.6569 13.35 16.6569C13.83 16.6569 14.23 16.5609 14.55 16.3689C14.8807 16.1662 15.1687 15.9155 15.414 15.6169L16.79 16.6569C16.342 17.2115 15.8407 17.6062 15.286 17.8409C14.7314 18.0755 14.15 18.1929 13.542 18.1929C12.966 18.1929 12.422 18.0969 11.91 17.9049C11.398 17.7129 10.9554 17.4409 10.582 17.0889C10.2087 16.7369 9.91003 16.3155 9.68603 15.8249C9.4727 15.3235 9.36603 14.7689 9.36603 14.1609C9.36603 13.5529 9.4727 13.0035 9.68603 12.5129C9.91003 12.0115 10.2087 11.5849 10.582 11.2329C10.9554 10.8809 11.398 10.6089 11.91 10.4169C12.422 10.2249 12.966 10.1289 13.542 10.1289C14.0754 10.1289 14.5607 10.2249 14.998 10.4169C15.446 10.5982 15.8247 10.8649 16.134 11.2169C16.454 11.5689 16.6994 12.0062 16.87 12.5289C17.0514 13.0409 17.142 13.6329 17.142 14.3049V14.8329H11.286ZM15.222 13.3929C15.2114 12.8275 15.0354 12.3849 14.694 12.0649C14.3527 11.7342 13.878 11.5689 13.27 11.5689C12.694 11.5689 12.2354 11.7342 11.894 12.0649C11.5634 12.3955 11.3607 12.8382 11.286 13.3929H15.222ZM23.8175 16.9449H23.7695C23.4922 17.3822 23.1402 17.7022 22.7135 17.9049C22.2869 18.0969 21.8175 18.1929 21.3055 18.1929C20.9535 18.1929 20.6069 18.1449 20.2655 18.0489C19.9349 17.9529 19.6362 17.8089 19.3695 17.6169C19.1135 17.4249 18.9055 17.1849 18.7455 16.8969C18.5855 16.6089 18.5055 16.2729 18.5055 15.8889C18.5055 15.4729 18.5802 15.1209 18.7295 14.8329C18.8789 14.5342 19.0762 14.2889 19.3215 14.0969C19.5775 13.8942 19.8709 13.7342 20.2015 13.6169C20.5322 13.4995 20.8735 13.4142 21.2255 13.3609C21.5882 13.2969 21.9509 13.2595 22.3135 13.2489C22.6762 13.2275 23.0175 13.2169 23.3375 13.2169H23.8175V13.0089C23.8175 12.5289 23.6522 12.1715 23.3215 11.9369C22.9909 11.6915 22.5695 11.5689 22.0575 11.5689C21.6522 11.5689 21.2735 11.6435 20.9215 11.7929C20.5695 11.9315 20.2655 12.1235 20.0095 12.3689L19.0015 11.3609C19.4282 10.9235 19.9242 10.6089 20.4895 10.4169C21.0655 10.2249 21.6575 10.1289 22.2655 10.1289C22.8095 10.1289 23.2682 10.1929 23.6415 10.3209C24.0149 10.4382 24.3242 10.5929 24.5695 10.7849C24.8149 10.9769 25.0015 11.2009 25.1295 11.4569C25.2682 11.7022 25.3642 11.9529 25.4175 12.2089C25.4815 12.4649 25.5189 12.7155 25.5295 12.9609C25.5402 13.1955 25.5455 13.4035 25.5455 13.5849V18.0009H23.8175V16.9449ZM23.7055 14.5609H23.3055C23.0389 14.5609 22.7402 14.5715 22.4095 14.5929C22.0789 14.6142 21.7642 14.6675 21.4655 14.7529C21.1775 14.8275 20.9322 14.9449 20.7295 15.1049C20.5269 15.2542 20.4255 15.4675 20.4255 15.7449C20.4255 15.9262 20.4629 16.0809 20.5375 16.2089C20.6229 16.3262 20.7295 16.4275 20.8575 16.5129C20.9855 16.5982 21.1295 16.6622 21.2895 16.7049C21.4495 16.7369 21.6095 16.7529 21.7695 16.7529C22.4309 16.7529 22.9162 16.5982 23.2255 16.2889C23.5455 15.9689 23.7055 15.5369 23.7055 14.9929V14.5609ZM27.6913 10.3209H29.6113V11.5369H29.6433C29.8566 11.0889 30.1606 10.7422 30.5553 10.4969C30.9499 10.2515 31.4033 10.1289 31.9153 10.1289C32.0326 10.1289 32.1446 10.1395 32.2513 10.1609C32.3686 10.1822 32.4859 10.2089 32.6033 10.2409V12.0969C32.4433 12.0542 32.2833 12.0222 32.1233 12.0009C31.9739 11.9689 31.8246 11.9529 31.6753 11.9529C31.2273 11.9529 30.8646 12.0382 30.5873 12.2089C30.3206 12.3689 30.1126 12.5555 29.9633 12.7689C29.8246 12.9822 29.7286 13.1955 29.6753 13.4089C29.6326 13.6222 29.6113 13.7822 29.6113 13.8889V18.0009H27.6913V10.3209ZM34.2713 10.3209H36.0953V11.5529H36.1273C36.3086 11.1689 36.5859 10.8382 36.9593 10.5609C37.3326 10.2729 37.8393 10.1289 38.4793 10.1289C38.9913 10.1289 39.4233 10.2142 39.7753 10.3849C40.1379 10.5555 40.4313 10.7795 40.6553 11.0569C40.8793 11.3342 41.0393 11.6542 41.1353 12.0169C41.2313 12.3795 41.2793 12.7582 41.2793 13.1529V18.0009H39.3593V14.1129C39.3593 13.8995 39.3486 13.6649 39.3273 13.4089C39.3059 13.1422 39.2473 12.8969 39.1513 12.6729C39.0659 12.4382 38.9273 12.2462 38.7353 12.0969C38.5433 11.9369 38.2819 11.8569 37.9513 11.8569C37.6313 11.8569 37.3593 11.9102 37.1353 12.0169C36.9219 12.1235 36.7406 12.2675 36.5913 12.4489C36.4526 12.6302 36.3513 12.8382 36.2873 13.0729C36.2233 13.3075 36.1913 13.5529 36.1913 13.8089V18.0009H34.2713V10.3209ZM48.2732 10.3209H50.0972V11.5209H50.1292C50.2998 11.1582 50.5718 10.8382 50.9452 10.5609C51.3292 10.2729 51.8412 10.1289 52.4812 10.1289C53.6865 10.1289 54.4865 10.6035 54.8812 11.5529C55.1585 11.0622 55.5052 10.7049 55.9212 10.4809C56.3372 10.2462 56.8332 10.1289 57.4092 10.1289C57.9212 10.1289 58.3532 10.2142 58.7052 10.3849C59.0572 10.5555 59.3398 10.7902 59.5532 11.0889C59.7772 11.3875 59.9372 11.7395 60.0332 12.1449C60.1292 12.5395 60.1772 12.9662 60.1772 13.4249V18.0009H58.2572V13.6489C58.2572 13.4142 58.2358 13.1902 58.1932 12.9769C58.1505 12.7529 58.0758 12.5609 57.9692 12.4009C57.8625 12.2302 57.7185 12.0969 57.5372 12.0009C57.3558 11.9049 57.1212 11.8569 56.8332 11.8569C56.5345 11.8569 56.2785 11.9155 56.0652 12.0329C55.8625 12.1395 55.6918 12.2889 55.5532 12.4809C55.4252 12.6622 55.3292 12.8755 55.2652 13.1209C55.2118 13.3555 55.1852 13.5955 55.1852 13.8409V18.0009H53.2652V13.4249C53.2652 12.9449 53.1638 12.5662 52.9612 12.2889C52.7585 12.0009 52.4225 11.8569 51.9532 11.8569C51.6332 11.8569 51.3612 11.9102 51.1372 12.0169C50.9238 12.1235 50.7425 12.2675 50.5932 12.4489C50.4545 12.6302 50.3532 12.8382 50.2892 13.0729C50.2252 13.3075 50.1932 13.5529 50.1932 13.8089V18.0009H48.2732V10.3209ZM61.971 14.1609C61.971 13.5529 62.0777 13.0035 62.291 12.5129C62.515 12.0115 62.8137 11.5849 63.187 11.2329C63.5604 10.8809 64.003 10.6089 64.515 10.4169C65.027 10.2249 65.571 10.1289 66.147 10.1289C66.723 10.1289 67.267 10.2249 67.779 10.4169C68.291 10.6089 68.7337 10.8809 69.107 11.2329C69.4804 11.5849 69.7737 12.0115 69.987 12.5129C70.211 13.0035 70.323 13.5529 70.323 14.1609C70.323 14.7689 70.211 15.3235 69.987 15.8249C69.7737 16.3155 69.4804 16.7369 69.107 17.0889C68.7337 17.4409 68.291 17.7129 67.779 17.9049C67.267 18.0969 66.723 18.1929 66.147 18.1929C65.571 18.1929 65.027 18.0969 64.515 17.9049C64.003 17.7129 63.5604 17.4409 63.187 17.0889C62.8137 16.7369 62.515 16.3155 62.291 15.8249C62.0777 15.3235 61.971 14.7689 61.971 14.1609ZM63.891 14.1609C63.891 14.4595 63.939 14.7475 64.035 15.0249C64.1417 15.3022 64.291 15.5475 64.483 15.7609C64.6857 15.9742 64.9257 16.1449 65.203 16.2729C65.4804 16.4009 65.795 16.4649 66.147 16.4649C66.499 16.4649 66.8137 16.4009 67.091 16.2729C67.3684 16.1449 67.603 15.9742 67.795 15.7609C67.9977 15.5475 68.147 15.3022 68.243 15.0249C68.3497 14.7475 68.403 14.4595 68.403 14.1609C68.403 13.8622 68.3497 13.5742 68.243 13.2969C68.147 13.0195 67.9977 12.7742 67.795 12.5609C67.603 12.3475 67.3684 12.1769 67.091 12.0489C66.8137 11.9209 66.499 11.8569 66.147 11.8569C65.795 11.8569 65.4804 11.9209 65.203 12.0489C64.9257 12.1769 64.6857 12.3475 64.483 12.5609C64.291 12.7742 64.1417 13.0195 64.035 13.2969C63.939 13.5742 63.891 13.8622 63.891 14.1609ZM72.2007 10.3209H74.1207V11.5369H74.1527C74.366 11.0889 74.67 10.7422 75.0647 10.4969C75.4593 10.2515 75.9127 10.1289 76.4247 10.1289C76.542 10.1289 76.654 10.1395 76.7607 10.1609C76.878 10.1822 76.9953 10.2089 77.1127 10.2409V12.0969C76.9527 12.0542 76.7927 12.0222 76.6327 12.0009C76.4833 11.9689 76.334 11.9529 76.1847 11.9529C75.7367 11.9529 75.374 12.0382 75.0967 12.2089C74.83 12.3689 74.622 12.5555 74.4727 12.7689C74.334 12.9822 74.238 13.1955 74.1847 13.4089C74.142 13.6222 74.1207 13.7822 74.1207 13.8889V18.0009H72.2007V10.3209ZM79.7542 14.8329C79.8182 15.4089 80.0422 15.8569 80.4262 16.1769C80.8102 16.4969 81.2742 16.6569 81.8182 16.6569C82.2982 16.6569 82.6982 16.5609 83.0182 16.3689C83.3488 16.1662 83.6368 15.9155 83.8822 15.6169L85.2582 16.6569C84.8102 17.2115 84.3088 17.6062 83.7542 17.8409C83.1995 18.0755 82.6182 18.1929 82.0102 18.1929C81.4342 18.1929 80.8902 18.0969 80.3782 17.9049C79.8662 17.7129 79.4235 17.4409 79.0502 17.0889C78.6768 16.7369 78.3782 16.3155 78.1542 15.8249C77.9408 15.3235 77.8342 14.7689 77.8342 14.1609C77.8342 13.5529 77.9408 13.0035 78.1542 12.5129C78.3782 12.0115 78.6768 11.5849 79.0502 11.2329C79.4235 10.8809 79.8662 10.6089 80.3782 10.4169C80.8902 10.2249 81.4342 10.1289 82.0102 10.1289C82.5435 10.1289 83.0288 10.2249 83.4662 10.4169C83.9142 10.5982 84.2928 10.8649 84.6022 11.2169C84.9222 11.5689 85.1675 12.0062 85.3382 12.5289C85.5195 13.0409 85.6102 13.6329 85.6102 14.3049V14.8329H79.7542ZM83.6902 13.3929C83.6795 12.8275 83.5035 12.3849 83.1622 12.0649C82.8208 11.7342 82.3462 11.5689 81.7382 11.5689C81.1622 11.5689 80.7035 11.7342 80.3622 12.0649C80.0315 12.3955 79.8288 12.8382 79.7542 13.3929H83.6902Z" fill="#212353"/>
<path d="M121.285 20.0009L127.285 13.0009L121.285 6.00085" stroke="#9C69E2" stroke-width="2" stroke-linecap="round" stroke-linejoin="round"/>
<path d="M127.285 13.0009H107.285" stroke="#9C69E2" stroke-width="2" stroke-linecap="round" stroke-linejoin="round"/>
</svg>
